<svg width="311" height="106" viewBox="0 0 311 106" fill="none" xmlns="http://www.w3.org/2000/svg">
<path d="M26.64 34.32L8.9407e-08 36.36V6.83998H60.36L60.12 32.76L36.72 60.24L14.64 48.6L26.64 34.32ZM100.68 18.72L99.6 34.92L99.24 58.44H73.08L76.92 -1.71661e-05H102.6L100.68 18.72ZM47.76 77.64L46.44 94.92L61.44 94.32L64.32 76.2L47.76 77.64ZM90.6 105.96H25.44L26.16 89.88L30.12 67.32L95.76 64.32L90.6 105.96ZM143.409 75L113.409 61.2L151.329 4.43998L176.289 15.96L168.369 28.32L189.849 37.44L174.129 58.44L156.249 53.04L143.409 75ZM154.449 76.8L108.609 77.76L109.689 99.12L203.049 99.96L205.449 75.72L172.449 76.44L173.529 60.24L154.689 63.6L154.449 76.8ZM242.197 17.52C241.077 18 240.237 18.68 239.677 19.56C239.117 20.44 238.997 21.28 239.317 22.08C239.957 23.28 241.437 23.88 243.757 23.88C245.197 23.88 246.517 23.64 247.717 23.16C248.677 22.76 249.477 22.24 250.117 21.6C250.837 20.88 251.197 20.12 251.197 19.32C251.197 18.76 250.877 18.16 250.237 17.52C249.357 16.88 248.117 16.56 246.517 16.56C244.917 16.56 243.477 16.88 242.197 17.52ZM263.917 29.4C261.757 31.56 259.357 33.2 256.717 34.32C254.317 35.36 251.477 36.16 248.197 36.72C244.917 37.2 241.477 37.44 237.877 37.44C233.877 37.44 230.077 37.12 226.477 36.48C222.957 35.76 220.077 34.72 217.837 33.36C213.677 30.88 211.597 27.4 211.597 22.92C211.597 20.2 212.317 17.72 213.757 15.48C215.757 12.04 219.037 9.39998 223.597 7.55998C228.237 5.63998 233.677 4.43998 239.917 3.95998C242.637 3.79998 244.757 3.71998 246.277 3.71998C253.477 3.71998 258.997 4.91998 262.837 7.31998C264.677 8.51998 266.037 10.04 266.917 11.88C267.797 13.72 268.237 15.68 268.237 17.76C268.237 19.84 267.837 21.92 267.037 24C266.317 26 265.277 27.8 263.917 29.4ZM308.557 25.32L307.477 36.24L307.117 77.28H280.957L281.197 72.12L262.237 73.08L261.157 59.88L281.917 57.72L284.797 1.19998H310.477L308.557 25.32ZM276.517 38.4L274.957 55.92L241.237 56.52L241.357 65.04L221.677 67.08L222.877 56.88L213.397 57.12L211.477 41.76L276.517 38.4ZM253.837 89.76L310.117 88.92L303.037 105.84H228.277V87.48L235.357 73.44L257.557 72.12L253.837 89.76Z" fill="black"/>
</svg>
