<svg width="256" height="256" viewBox="0 0 256 256" fill="none" xmlns="http://www.w3.org/2000/svg">
<g clip-path="url(#clip0_44_100)">
<path d="M196 0H60C26.8629 0 0 26.8629 0 60V196C0 229.137 26.8629 256 60 256H196C229.137 256 256 229.137 256 196V60C256 26.8629 229.137 0 196 0Z" fill="url(#paint0_linear_44_100)"/>
<path fill-rule="evenodd" clip-rule="evenodd" d="M157.719 33.011C159.353 35.039 160.185 37.776 161.851 43.248L198.247 162.809C184.576 155.715 169.903 150.747 154.734 148.077L131.037 67.997C130.896 67.5199 130.641 67.0841 130.295 66.7267C129.948 66.3693 129.521 66.1009 129.049 65.9444C128.576 65.7879 128.073 65.748 127.582 65.828C127.091 65.9081 126.626 66.1057 126.228 66.404C125.695 66.804 125.306 67.366 125.119 68.006L101.708 148.037C86.4709 150.695 71.7308 155.671 58 162.791L94.573 43.221C96.246 37.757 97.08 35.026 98.714 33.002C100.156 31.2145 102.032 29.8264 104.163 28.97C106.577 28 109.433 28 115.147 28H141.27C146.991 28 149.851 28 152.267 28.972C154.4 29.8306 156.277 31.2205 157.719 33.011Z" fill="#31274A"/>
<path fill-rule="evenodd" clip-rule="evenodd" d="M162.074 168.499C156.074 173.63 144.098 177.128 130.304 177.128C113.373 177.128 99.1819 171.857 95.4169 164.769C94.0709 168.832 93.7689 173.481 93.7689 176.452C93.7689 176.452 92.8819 191.037 103.026 201.181C103.026 198.652 104.032 196.226 105.82 194.437C107.609 192.649 110.034 191.644 112.564 191.643C121.592 191.643 121.582 199.52 121.573 205.911V206.481C121.573 216.181 127.501 224.496 135.932 228C134.634 225.329 133.962 222.398 133.966 219.428C133.966 210.177 139.398 206.732 145.71 202.73C150.732 199.545 156.312 196.006 160.158 188.906C162.229 185.082 163.31 180.801 163.303 176.452C163.303 173.679 162.872 171.007 162.074 168.499Z" fill="#FF5D01"/>
<path fill-rule="evenodd" clip-rule="evenodd" d="M162.074 168.499C156.074 173.63 144.098 177.128 130.304 177.128C113.373 177.128 99.1819 171.857 95.4169 164.769C94.0709 168.832 93.7689 173.481 93.7689 176.452C93.7689 176.452 92.8819 191.037 103.026 201.181C103.026 198.652 104.032 196.226 105.82 194.437C107.609 192.649 110.034 191.644 112.564 191.643C121.592 191.643 121.582 199.52 121.573 205.911V206.481C121.573 216.181 127.501 224.496 135.932 228C134.634 225.329 133.962 222.398 133.966 219.428C133.966 210.177 139.398 206.732 145.71 202.73C150.732 199.545 156.312 196.006 160.158 188.906C162.229 185.082 163.31 180.801 163.303 176.452C163.303 173.679 162.872 171.007 162.074 168.499Z" fill="url(#paint1_linear_44_100)"/>
</g>
<defs>
<linearGradient id="paint0_linear_44_100" x1="128" y1="0" x2="128" y2="256" gradientUnits="userSpaceOnUse">
<stop offset="0.193" stop-color="#FCB3B2"/>
<stop offset="1" stop-color="#C587EE"/>
</linearGradient>
<linearGradient id="paint1_linear_44_100" x1="189.089" y1="126.765" x2="153.565" y2="201.132" gradientUnits="userSpaceOnUse">
<stop stop-color="#FF1639"/>
<stop offset="1" stop-color="#FF1639" stop-opacity="0"/>
</linearGradient>
<clipPath id="clip0_44_100">
<rect width="256" height="256" fill="white"/>
</clipPath>
</defs>
</svg>
