<svg width="256" height="256" viewBox="0 0 256 256" fill="none" xmlns="http://www.w3.org/2000/svg">
<g clip-path="url(#clip0_66_90)">
<path d="M196 0H60C26.8629 0 0 26.8629 0 60V196C0 229.137 26.8629 256 60 256H196C229.137 256 256 229.137 256 196V60C256 26.8629 229.137 0 196 0Z" fill="url(#paint0_linear_66_90)"/>
<g clip-path="url(#clip1_66_90)">
<path d="M102.064 192.017C93.8184 184.501 91.4112 168.709 94.8467 157.268C100.804 164.482 109.058 166.767 117.607 168.056C130.805 170.047 143.767 169.302 156.028 163.287C157.431 162.599 158.727 161.683 160.259 160.756C161.41 164.084 161.709 167.443 161.307 170.863C160.33 179.191 156.174 185.624 149.563 190.5C146.919 192.451 144.122 194.195 141.392 196.034C133.004 201.687 130.734 208.315 133.886 217.956C133.961 218.192 134.028 218.427 134.197 219C129.915 217.088 126.787 214.305 124.403 210.647C121.886 206.786 120.688 202.515 120.625 197.893C120.593 195.644 120.593 193.375 120.29 191.157C119.549 185.751 117.004 183.331 112.209 183.192C107.289 183.048 103.396 186.082 102.364 190.859C102.285 191.225 102.171 191.587 102.056 192.013L102.064 192.017Z" fill="white"/>
<path d="M102.064 192.017C93.8184 184.501 91.4112 168.709 94.8467 157.268C100.804 164.482 109.058 166.767 117.607 168.056C130.805 170.047 143.767 169.302 156.028 163.287C157.431 162.599 158.727 161.683 160.259 160.756C161.41 164.084 161.709 167.443 161.307 170.863C160.33 179.191 156.174 185.624 149.563 190.5C146.919 192.451 144.122 194.195 141.392 196.034C133.004 201.687 130.734 208.315 133.886 217.956C133.961 218.192 134.028 218.427 134.197 219C129.915 217.088 126.787 214.305 124.403 210.647C121.886 206.786 120.688 202.515 120.625 197.893C120.593 195.644 120.593 193.375 120.29 191.157C119.549 185.751 117.004 183.331 112.209 183.192C107.289 183.048 103.396 186.082 102.364 190.859C102.285 191.225 102.171 191.587 102.056 192.013L102.064 192.017Z" fill="url(#paint1_linear_66_90)"/>
<path d="M55 155.362C55 155.362 79.4178 143.502 103.904 143.502L122.365 86.5319C123.057 83.7769 125.075 81.9045 127.353 81.9045C129.631 81.9045 131.65 83.7769 132.341 86.5319L150.803 143.502C179.803 143.502 199.706 155.362 199.706 155.362C199.706 155.362 158.231 42.7021 158.15 42.4761C156.959 39.1452 154.95 37 152.24 37H102.47C99.761 37 97.8325 39.1452 96.5611 42.4761C96.4714 42.6978 55 155.362 55 155.362Z" fill="white"/>
</g>
</g>
<defs>
<linearGradient id="paint0_linear_66_90" x1="128" y1="0" x2="128" y2="256" gradientUnits="userSpaceOnUse">
<stop offset="0.193" stop-color="#1D1F26"/>
</linearGradient>
<linearGradient id="paint1_linear_66_90" x1="93.3317" y1="219" x2="172.869" y2="181.31" gradientUnits="userSpaceOnUse">
<stop stop-color="#D83333"/>
<stop offset="1" stop-color="#F041FF"/>
</linearGradient>
<clipPath id="clip0_66_90">
<rect width="256" height="256" fill="white"/>
</clipPath>
<clipPath id="clip1_66_90">
<rect width="145" height="182" fill="white" transform="translate(55 37)"/>
</clipPath>
</defs>
</svg>
