<svg width="256" height="256" viewBox="0 0 256 256" fill="none" xmlns="http://www.w3.org/2000/svg">
<g clip-path="url(#clip0_44_38)">
<path d="M196 0H60C26.8629 0 0 26.8629 0 60V196C0 229.137 26.8629 256 60 256H196C229.137 256 256 229.137 256 196V60C256 26.8629 229.137 0 196 0Z" fill="#242938"/>
<mask id="mask0_44_38" style="mask-type:luminance" maskUnits="userSpaceOnUse" x="61" y="28" width="134" height="200">
<path d="M61 28H194.36V228H61V28Z" fill="white"/>
</mask>
<g mask="url(#mask0_44_38)">
<path d="M94.3471 228C112.747 228 127.68 213.067 127.68 194.667V161.333H94.3471C75.9471 161.333 61.0131 176.267 61.0131 194.667C61.0131 213.067 75.9471 228 94.3471 228Z" fill="#0ACF83"/>
<path d="M61.0131 128C61.0131 109.6 75.9471 94.667 94.3471 94.667H127.68V161.333H94.3471C75.9471 161.333 61.0131 146.4 61.0131 128Z" fill="#A259FF"/>
<path d="M61.0131 61.333C61.0131 42.933 75.9471 28 94.3471 28H127.68V94.667H94.3471C75.9471 94.667 61.0131 79.733 61.0131 61.333Z" fill="#F24E1E"/>
<path d="M127.68 28H161.013C179.413 28 194.347 42.933 194.347 61.333C194.347 79.733 179.413 94.667 161.013 94.667H127.68V28Z" fill="#FF7262"/>
<path d="M194.347 128C194.347 146.4 179.413 161.333 161.013 161.333C142.613 161.333 127.68 146.4 127.68 128C127.68 109.6 142.613 94.667 161.013 94.667C179.413 94.667 194.347 109.6 194.347 128Z" fill="#1ABCFE"/>
</g>
</g>
<defs>
<clipPath id="clip0_44_38">
<rect width="256" height="256" fill="white"/>
</clipPath>
</defs>
</svg>
