<svg width="256" height="256" viewBox="0 0 256 256" fill="none" xmlns="http://www.w3.org/2000/svg">
<g clip-path="url(#clip0_44_65)">
<mask id="mask0_44_65" style="mask-type:luminance" maskUnits="userSpaceOnUse" x="0" y="0" width="256" height="256">
<path d="M0 0H256V256H0V0Z" fill="white"/>
</mask>
<g mask="url(#mask0_44_65)">
<path d="M196 0H60C26.863 0 0 26.863 0 60V196C0 229.137 26.863 256 60 256H196C229.137 256 256 229.137 256 196V60C256 26.863 229.137 0 196 0Z" fill="#F4F2ED"/>
<mask id="mask1_44_65" style="mask-type:luminance" maskUnits="userSpaceOnUse" x="40" y="40" width="175" height="175">
<path d="M40 40H215V215H40V40Z" fill="white"/>
</mask>
<g mask="url(#mask1_44_65)">
<path d="M50.53 47.548L147.362 40.396C159.257 39.376 162.313 40.063 169.792 45.501L200.702 67.276C205.8 71.021 207.498 72.041 207.498 76.119V195.544C207.498 203.029 204.78 207.456 195.265 208.132L82.817 214.943C75.677 215.28 72.277 214.26 68.537 209.495L45.775 179.895C41.692 174.448 40 170.37 40 165.603V59.448C40 53.328 42.718 48.225 50.53 47.548Z" fill="white"/>
<path fill-rule="evenodd" clip-rule="evenodd" d="M147.362 40.398L50.53 47.55C42.718 48.225 40 53.33 40 59.448V165.603C40 170.368 41.692 174.446 45.775 179.895L68.537 209.493C72.277 214.258 75.677 215.28 82.817 214.941L195.267 208.133C204.775 207.456 207.499 203.029 207.499 195.546V76.12C207.499 72.253 205.972 71.138 201.474 67.838L169.792 45.5C162.314 40.062 159.257 39.375 147.362 40.395V40.398ZM85.36 74.165C76.178 74.783 74.095 74.923 68.88 70.683L55.622 60.137C54.275 58.773 54.952 57.07 58.347 56.73L151.435 49.928C159.252 49.246 163.323 51.97 166.38 54.35L182.345 65.918C183.027 66.262 184.725 68.298 182.683 68.298L86.55 74.085L85.36 74.165ZM74.655 194.525V93.142C74.655 88.715 76.015 86.672 80.085 86.33L190.5 79.865C194.245 79.528 195.937 81.908 195.937 86.328V187.035C195.937 191.463 195.255 195.208 189.142 195.546L83.482 201.671C77.37 202.008 74.657 199.973 74.657 194.525H74.655ZM178.955 98.578C179.633 101.641 178.955 104.703 175.893 105.053L170.8 106.063V180.916C166.378 183.296 162.307 184.655 158.906 184.655C153.468 184.655 152.11 182.952 148.038 177.853L114.736 125.458V176.15L125.271 178.536C125.271 178.536 125.271 184.661 116.771 184.661L93.338 186.02C92.656 184.655 93.338 181.255 95.713 180.578L101.833 178.88V111.855L93.34 111.168C92.657 108.105 94.355 103.683 99.115 103.34L124.257 101.648L158.907 154.72V107.767L150.075 106.752C149.393 103.002 152.11 100.277 155.505 99.945L178.955 98.578Z" fill="black"/>
</g>
</g>
</g>
<defs>
<clipPath id="clip0_44_65">
<rect width="256" height="256" fill="white"/>
</clipPath>
</defs>
</svg>
