<svg width="256" height="256" viewBox="0 0 256 256" fill="none" xmlns="http://www.w3.org/2000/svg">
<g clip-path="url(#clip0_46_2)">
<path d="M196 0H60C26.8629 0 0 26.8629 0 60V196C0 229.137 26.8629 256 60 256H196C229.137 256 256 229.137 256 196V60C256 26.8629 229.137 0 196 0Z" fill="url(#paint0_linear_46_2)"/>
<path d="M11.487 129.079L61.791 149.463V163.732L2.24097 136.141V127.769L11.487 129.079ZM61.791 112.336L11.56 133.01L2.24197 134.03V125.585L61.79 98.067L61.791 112.336ZM241.371 131.991L189.611 111.826V97.921L251.781 125.439V133.957L241.371 131.991ZM189.611 149.754L241.517 129.152L251.781 127.623V136.068L189.611 163.659V149.754Z" fill="white"/>
<path fill-rule="evenodd" clip-rule="evenodd" d="M176.077 61.099C175.789 65.665 173.732 70.433 174.305 74.872C177.898 81.226 185.806 82.239 192.33 82.675C196.85 83.483 196.793 80.49 196.49 77.128L196.545 61.004C189.722 61.029 182.897 60.937 176.077 61.099ZM122.276 73.869C111.168 75.755 99.9081 81.063 90.6671 87.453C83.2291 93.242 97.0521 98.852 102.067 99.79C112.157 99.913 121.106 93.107 127.734 86.043C129.898 83.073 132.601 78.526 129.882 75.083C127.806 73.283 124.787 73.719 122.276 73.869ZM145.913 90.025C136.78 91.765 128.09 95.529 120.401 100.77C114.764 102.54 110.118 108.729 117.103 111.83C124.438 117.675 132.939 116.243 139.694 112.297C145.88 108.62 152.562 104.083 155.424 97.161C158.127 89.578 151.153 89.297 145.913 90.025ZM171.822 119.408C170.121 126.512 162.967 129.742 159.161 135.371C156.049 139.477 157.49 144.314 161.033 147.546C162.758 151.123 165.782 153.122 169.025 150.015C177.377 144.337 179.687 133.277 179.34 123.694C179.957 119.736 175.416 123.314 171.822 119.408ZM140.039 132.751C128.948 134.649 117.855 140.053 108.61 146.433C101.433 152.214 114.95 157.612 120.006 158.468C130.283 158.483 139.45 151.86 145.948 144.338C148.208 141.351 150.947 135.55 146.472 133.175C144.471 132.327 142.148 132.576 140.039 132.751Z" fill="#B956A6"/>
<path fill-rule="evenodd" clip-rule="evenodd" d="M90.6671 87.453C82.1371 90.866 73.9091 95.01 65.7831 99.35C64.2731 104.965 65.4841 111.918 65.0931 118.075C65.0631 143.391 65.0771 168.708 65.0731 194.024H83.8931C87.6931 190.446 92.4531 187.827 96.5811 184.578C112.475 173.179 128.364 161.736 144.237 150.369C145.405 150.894 144.657 143.498 142.095 148.635C136.024 154.348 127.966 159.047 119.437 158.588C114.597 156.996 106.795 154.295 106.746 148.364C110.153 144.353 100.46 150.464 97.8081 151.339C89.1861 155.479 80.7681 160.102 72.1281 164.165C74.2041 161.935 78.0881 159.856 80.8421 157.644C100.515 143.522 120.183 129.345 139.903 115.234C143.696 112.571 147.36 109.666 151.27 107.177C151.627 108.556 152.297 100.584 149.389 105.492C143.461 111.368 135.465 115.742 127.032 115.802C122.289 114.362 112.187 110.919 114.436 104.795C115.533 102.646 104.248 109.376 109.234 105.581C114.541 101.703 119.89 97.894 125.238 94.056C127.939 93.853 127.364 83.82 123.694 90.292C117.529 95.709 109.429 100.665 100.938 99.49C96.1681 98.117 90.4451 95.458 88.7111 90.47C88.1371 89.272 91.9231 87.405 90.6671 87.453ZM126.006 93.646C126.863 93.152 125.533 94.999 126.006 93.646Z" fill="#FCCC44"/>
<path fill-rule="evenodd" clip-rule="evenodd" d="M179.899 80.75C177.236 93.466 174.325 106.775 171.822 119.407C179.014 128.471 179.711 113.681 180.969 109.499C183.002 100.758 185.41 94.158 185.665 85.108C186.205 82.019 182.575 80.149 179.899 80.75ZM188.15 90.721C188.478 90.966 187.925 92.024 188.15 90.721ZM179.76 119.235C180.106 119.98 180.106 118.489 179.76 119.235Z" fill="#62777F"/>
<path fill-rule="evenodd" clip-rule="evenodd" d="M184.616 82.19C186.86 94.792 179.427 110.102 176.996 121.984C182.516 117.922 186.781 99.492 187.871 92.278C188.152 91.453 188.498 89.377 188.573 89.302C188.92 87.551 192.153 84.584 192.33 82.675C194.212 81.347 183.08 81.134 184.616 82.19ZM180.039 119.235C179.692 119.98 179.692 118.489 180.039 119.235Z" fill="#4E5E67"/>
<path fill-rule="evenodd" clip-rule="evenodd" d="M90.854 87.663C87.742 90.779 88.91 90.018 91.226 87.427L90.854 87.663ZM124.514 89.206C120.909 94.623 107.909 99.153 106.272 99.504C114.092 98.039 121.381 93.174 126.51 87.476C125.695 87.839 125.211 88.692 124.514 89.206ZM88.716 90.965C90.659 95.637 97.724 98.741 101.157 99.465C96.47 97.955 90.953 95.277 88.716 90.965ZM125.726 93.667C124.745 94.825 121.251 96.557 119.409 98.257C115.458 101.171 111.371 103.879 107.465 106.866C109.952 106.759 117.24 101.315 113.504 106.839C116.67 112.288 123.563 116.077 129.848 115.731C138.148 114.428 145.802 109.839 151.304 103.457C144.625 110.066 135.795 116.286 126.024 115.429C121.295 114.337 108.373 107.662 117.017 102.983C120.065 100.476 125.32 99.163 125.915 94.757C125.79 94.207 126.815 93.67 125.726 93.667ZM102.067 99.79C105.212 100.201 105.212 99.38 102.067 99.79ZM151.07 107.315C138.591 116.009 126.293 125.043 113.922 133.893C99.902 143.927 85.942 153.998 71.926 164.024C77.196 162.247 82.476 158.777 87.711 156.38C94.921 152.566 102.523 149.553 109.269 144.92C122.607 137.068 136.713 129.587 146.972 117.574C149.211 114.948 151.456 110.721 151.556 107.878C151.233 107.969 151.478 106.741 151.07 107.315ZM108.61 146.432C106.365 148.969 105.453 150.782 107.783 147.556C107.742 147.93 109.674 145.553 108.61 146.432ZM142.766 147.646C136.852 153.882 128.105 158.38 119.898 158.683C129.386 158.752 137.946 153.12 144.374 146.476C143.952 145.966 143.097 147.664 142.766 147.646ZM144.573 149.606C124.704 164.07 104.149 179.073 84.213 193.485C87.353 194.47 94.192 194.932 97.313 190.911C103.953 186.329 111.418 182.96 118.08 178.316C127.727 172.056 138.056 165.214 143.535 154.693C143.796 153.282 145.735 150.744 144.573 149.606ZM106.76 150.524C107.682 154.416 119.208 158.883 117.958 158.028C113.708 156.538 109.492 154.216 106.76 150.524Z" fill="#DC9624"/>
</g>
<defs>
<linearGradient id="paint0_linear_46_2" x1="0" y1="256" x2="256" y2="0" gradientUnits="userSpaceOnUse">
<stop stop-color="#DB7093"/>
<stop offset="1" stop-color="#F3B661"/>
</linearGradient>
<clipPath id="clip0_46_2">
<rect width="256" height="256" fill="white"/>
</clipPath>
</defs>
</svg>
