<svg width="256" height="256" viewBox="0 0 256 256" fill="none" xmlns="http://www.w3.org/2000/svg">
<g clip-path="url(#clip0_44_54)">
<path d="M196 0H60C26.8629 0 0 26.8629 0 60V196C0 229.137 26.8629 256 60 256H196C229.137 256 256 229.137 256 196V60C256 26.8629 229.137 0 196 0Z" fill="#F4F2ED"/>
<path d="M227.088 57.602L133.256 225.389C131.318 228.854 126.341 228.874 124.375 225.427L28.682 57.617C26.54 53.861 29.752 49.311 34.01 50.072L127.942 66.862C128.541 66.9688 129.155 66.9675 129.754 66.858L221.722 50.095C225.965 49.322 229.192 53.837 227.088 57.602Z" fill="url(#paint0_linear_44_54)"/>
<path d="M172.687 28.05L103.249 41.655C102.694 41.7638 102.191 42.0538 101.819 42.4796C101.447 42.9053 101.227 43.4426 101.194 44.007L96.9219 116.148C96.8986 116.544 96.9677 116.939 97.1239 117.303C97.2801 117.667 97.5189 117.99 97.8215 118.246C98.1241 118.501 98.4822 118.683 98.8673 118.776C99.2523 118.87 99.6538 118.872 100.04 118.783L119.373 114.322C121.182 113.905 122.816 115.498 122.445 117.317L116.701 145.443C116.314 147.336 118.092 148.954 119.94 148.393L131.881 144.765C133.732 144.203 135.511 145.826 135.119 147.721L125.991 191.9C125.42 194.664 129.096 196.171 130.629 193.801L131.653 192.219L188.235 79.299C189.183 77.409 187.549 75.253 185.472 75.653L165.573 79.494C163.703 79.854 162.112 78.113 162.639 76.284L175.628 31.258C176.156 29.426 174.559 27.684 172.687 28.05Z" fill="url(#paint1_linear_44_54)"/>
</g>
<defs>
<linearGradient id="paint0_linear_44_54" x1="26.346" y1="44.075" x2="143.127" y2="202.673" gradientUnits="userSpaceOnUse">
<stop stop-color="#41D1FF"/>
<stop offset="1" stop-color="#BD34FE"/>
</linearGradient>
<linearGradient id="paint1_linear_44_54" x1="122.551" y1="31.743" x2="143.676" y2="176.66" gradientUnits="userSpaceOnUse">
<stop stop-color="#FFEA83"/>
<stop offset="0.083" stop-color="#FFDD35"/>
<stop offset="1" stop-color="#FFA800"/>
</linearGradient>
<clipPath id="clip0_44_54">
<rect width="256" height="256" fill="white"/>
</clipPath>
</defs>
</svg>
